<svg version="1.0" xmlns="http://www.w3.org/2000/svg"
 width="656.000000pt" height="656.000000pt" viewBox="0 0 656.000000 656.000000"
 preserveAspectRatio="xMidYMid meet">
   <style>
    path { fill: black; }
    @media (prefers-color-scheme: dark) {
      path { fill: white; }
    }
  </style>

<g transform="translate(0.000000,656.000000) scale(0.100000,-0.100000)"
fill="#000000" stroke="none">
<path d="M2041 6089 c-114 -31 -190 -78 -197 -122 -1 -9 -5 -35 -9 -59 -3 -24
-8 -56 -10 -72 -2 -15 -7 -35 -9 -45 -3 -9 -8 -32 -11 -51 -3 -19 -8 -43 -11
-52 -3 -9 -7 -25 -9 -35 -80 -374 -89 -433 -89 -593 1 -233 62 -346 212 -386
44 -12 217 -12 267 -1 272 63 504 143 643 221 89 51 171 147 192 226 13 49 7
157 -10 174 -5 5 -10 16 -10 24 0 27 -108 177 -182 252 -40 41 -141 133 -223
204 -136 117 -221 198 -312 298 -29 32 -36 35 -95 36 -36 1 -95 -7 -137 -19z"/>
<path d="M4579 6106 c-2 -2 -17 -7 -34 -9 -140 -26 -194 -59 -363 -226 -82
-80 -212 -207 -288 -281 -144 -141 -214 -216 -214 -230 0 -5 -4 -10 -8 -12
-13 -5 -68 -90 -92 -143 -29 -64 -36 -171 -13 -226 21 -54 106 -128 195 -171
74 -36 241 -91 312 -102 21 -4 41 -8 45 -10 7 -5 91 -17 146 -22 188 -16 350
16 439 87 124 99 178 249 171 470 -2 63 -6 125 -8 139 -6 36 -19 112 -22 131
-2 9 -8 33 -14 55 -17 64 -80 327 -86 357 -3 15 -8 39 -11 55 -5 24 -13 78
-16 109 -2 22 -121 47 -139 29z"/>
<path d="M287 4894 c-1 -1 -20 -4 -42 -7 -89 -13 -180 -48 -224 -86 -27 -24
-26 -33 13 -136 15 -38 41 -113 58 -165 16 -52 35 -108 41 -125 6 -16 12 -34
14 -40 15 -76 112 -324 157 -403 20 -35 36 -68 36 -73 0 -5 4 -9 8 -9 4 0 15
-13 24 -28 77 -130 195 -192 355 -186 196 6 354 83 518 250 238 242 307 352
308 484 1 132 -75 209 -303 309 -44 19 -215 69 -255 75 -11 2 -35 6 -53 10
-19 5 -43 9 -55 11 -52 9 -98 17 -192 37 -55 11 -107 21 -115 23 -8 2 -56 16
-106 33 -73 24 -173 38 -187 26z"/>
<path d="M6375 4889 c-76 -14 -90 -17 -135 -33 -25 -8 -81 -22 -125 -31 -99
-21 -111 -23 -155 -31 -59 -11 -62 -12 -155 -34 -49 -11 -99 -22 -110 -24 -76
-15 -334 -107 -425 -152 -108 -54 -208 -144 -246 -222 -31 -62 -25 -153 15
-233 18 -36 45 -79 59 -96 15 -17 38 -44 52 -60 245 -294 325 -346 523 -339
124 5 194 27 352 114 42 22 156 143 196 206 21 33 43 66 49 73 5 7 10 16 10
22 0 5 9 26 19 48 44 87 69 155 136 383 57 190 69 228 101 308 26 66 25 101
-4 103 -65 5 -123 4 -157 -2z"/>
<path d="M3138 4525 c-2 -1 -30 -5 -63 -9 -99 -10 -138 -16 -191 -26 -28 -6
-64 -13 -80 -16 -56 -9 -229 -56 -304 -81 -256 -87 -530 -233 -706 -376 -28
-23 -69 -55 -90 -72 -92 -72 -283 -269 -360 -371 -46 -62 -84 -116 -84 -122 0
-6 -3 -12 -7 -14 -10 -4 -73 -107 -73 -119 0 -5 -3 -9 -8 -9 -4 0 -13 -15 -21
-32 -8 -18 -27 -60 -43 -93 -33 -68 -59 -161 -64 -220 -1 -23 -4 -45 -5 -50
-6 -20 23 -85 44 -100 55 -39 94 -1 188 181 110 215 119 233 173 324 59 101
105 165 203 281 64 76 99 113 221 229 104 99 315 241 462 312 58 27 112 54
121 58 30 15 253 88 294 96 6 1 12 3 15 4 3 1 14 3 25 5 25 5 85 17 105 22 17
4 66 10 169 21 76 9 334 7 406 -2 78 -10 221 -34 247 -42 10 -3 28 -7 40 -9
23 -5 132 -40 218 -70 75 -27 250 -115 335 -168 137 -87 278 -209 367 -319 18
-22 43 -52 55 -66 13 -15 23 -30 23 -34 0 -4 6 -13 13 -20 7 -7 29 -40 49 -73
99 -165 171 -356 207 -550 98 -535 -94 -1032 -509 -1314 -90 -61 -212 -125
-295 -155 -27 -10 -57 -20 -65 -23 -8 -4 -17 -7 -20 -8 -3 0 -38 -11 -79 -24
-41 -12 -82 -23 -92 -24 -11 -1 -19 -5 -19 -10 0 -4 -3 -6 -8 -3 -4 2 -34 -2
-67 -10 -33 -7 -76 -16 -95 -19 -20 -3 -46 -7 -59 -10 -23 -4 -79 -12 -161
-21 -157 -18 -480 -17 -589 1 -14 2 -46 7 -71 10 -130 17 -321 67 -435 113
-82 32 -219 102 -223 113 -2 5 -8 9 -13 9 -20 0 -110 71 -190 150 -153 151
-253 341 -285 545 -10 65 -12 326 -3 385 5 30 11 71 14 90 16 102 81 299 117
357 11 18 17 33 14 33 -3 0 15 35 41 78 213 355 544 602 976 727 74 21 95 25
235 44 74 11 339 4 372 -9 3 -1 8 -2 13 -1 6 1 61 -11 107 -24 70 -19 246 -96
260 -114 3 -3 24 -19 48 -35 58 -40 144 -128 189 -195 21 -31 40 -58 43 -61 3
-3 23 -43 44 -89 74 -163 94 -343 55 -498 -16 -62 -63 -178 -79 -193 -3 -3
-14 -18 -24 -35 -101 -157 -362 -312 -607 -360 -9 -2 -34 -7 -55 -11 -52 -10
-338 -10 -394 0 -314 54 -518 206 -609 451 -19 52 -25 106 -25 225 1 98 4 126
27 188 40 112 83 180 166 262 118 116 253 176 406 179 168 3 295 -63 351 -184
63 -134 -4 -257 -171 -315 -165 -57 -308 6 -310 136 0 42 5 58 25 79 28 31 94
64 126 65 11 0 30 10 43 21 20 19 21 23 8 36 -42 42 -142 32 -218 -23 -119
-87 -208 -249 -212 -389 -2 -114 73 -248 183 -326 55 -39 170 -86 251 -103 77
-16 203 -15 269 2 193 50 356 200 415 382 22 66 27 192 10 246 -7 21 -20 64
-30 94 -27 88 -82 189 -140 259 -85 101 -240 185 -380 206 -43 6 -165 7 -205
1 -77 -12 -110 -19 -160 -35 -74 -25 -164 -63 -168 -73 -2 -4 -10 -8 -17 -8
-14 0 -86 -45 -179 -112 -68 -49 -238 -213 -285 -275 -158 -208 -232 -391
-234 -578 -1 -87 2 -127 16 -195 1 -8 13 -42 26 -75 85 -211 285 -396 583
-539 80 -38 219 -90 268 -101 8 -2 35 -8 60 -14 111 -25 182 -33 320 -34 105
-1 211 7 250 18 8 2 29 7 45 9 104 18 304 91 380 139 153 96 182 118 279 212
78 77 102 105 157 185 43 62 56 83 101 174 43 86 76 198 94 321 6 44 5 196 -1
225 -3 14 -8 41 -11 60 -8 56 -34 141 -65 208 -16 35 -29 66 -29 69 0 9 -112
177 -139 207 -71 81 -189 190 -266 245 -47 33 -87 61 -89 61 -2 0 -32 16 -65
35 -121 68 -298 128 -451 154 -59 9 -220 25 -245 23 -5 0 -55 -3 -110 -6 -55
-3 -111 -8 -125 -11 -43 -9 -84 -17 -105 -20 -169 -25 -452 -145 -644 -273
-118 -79 -204 -151 -355 -298 -16 -16 -105 -120 -130 -152 -11 -15 -25 -32
-31 -38 -6 -6 -28 -37 -50 -70 -22 -32 -43 -61 -46 -64 -10 -8 -132 -221 -161
-280 -62 -126 -138 -330 -152 -407 -2 -15 -7 -37 -9 -48 -3 -11 -8 -31 -11
-45 -10 -43 -15 -73 -31 -205 -10 -82 -5 -296 10 -383 4 -21 8 -46 10 -57 13
-86 68 -257 116 -364 116 -256 365 -548 605 -709 101 -68 399 -203 464 -210 3
0 19 -6 35 -12 17 -7 37 -13 45 -14 8 -1 33 -7 55 -14 22 -6 54 -13 70 -16 17
-3 55 -10 85 -16 65 -13 98 -18 245 -37 76 -9 478 -10 570 -1 69 7 172 21 250
34 44 7 48 8 85 17 14 4 36 9 50 11 75 13 299 89 405 137 28 12 52 23 55 24
28 6 200 102 295 162 146 94 358 280 450 393 93 115 164 220 222 330 38 72
101 218 109 250 2 8 15 56 29 105 14 50 28 108 31 130 3 22 7 49 9 60 14 91
17 134 17 230 0 111 -7 224 -16 254 -3 9 -8 36 -11 61 -3 25 -8 53 -11 62 -3
9 -7 25 -9 36 -19 101 -142 405 -183 455 -6 6 -11 17 -13 22 -1 6 -13 27 -25
47 -13 21 -24 42 -24 47 0 5 -3 11 -8 13 -4 2 -23 28 -42 58 -19 30 -37 57
-40 60 -3 3 -21 28 -40 55 -19 28 -40 57 -47 65 -7 8 -35 44 -63 80 -122 154
-269 305 -390 402 -165 130 -470 304 -660 375 -76 28 -143 48 -153 45 -4 -1
-16 2 -25 7 -9 5 -40 12 -67 15 -28 3 -61 8 -75 10 -79 15 -137 18 -347 21
-127 2 -233 2 -235 0z"/>
</g>
</svg>
